<?xml version="1.0" encoding="UTF-8"?>
<!DOCTYPE svg PUBLIC "-//W3C//DTD SVG 1.1//EN" "http://www.w3.org/Graphics/SVG/1.1/DTD/svg11.dtd">
<svg xmlns="http://www.w3.org/2000/svg" version="1.1" width="500px" height="500px" style="shape-rendering:geometricPrecision; text-rendering:geometricPrecision; image-rendering:optimizeQuality; fill-rule:evenodd; clip-rule:evenodd" xmlns:xlink="http://www.w3.org/1999/xlink">
<g><path style="opacity:0.97" fill="#02c1c9" d="M 196.5,33.5 C 279.703,29.6875 344.87,61.6875 392,129.5C 399.054,140.942 405.054,152.942 410,165.5C 419.859,199.744 430.526,233.744 442,267.5C 454.783,298.4 468.116,329.067 482,359.5C 491.745,378.958 494.411,399.291 490,420.5C 482.264,442.567 467.098,456.734 444.5,463C 436.295,465.067 427.962,466.234 419.5,466.5C 376.005,462.313 332.672,456.813 289.5,450C 256.887,447.136 224.221,445.136 191.5,444C 113.27,434.156 57.4366,393.656 24,322.5C -6.79389,244.389 3.53945,172.389 55,106.5C 92.7104,64.0601 139.877,39.7268 196.5,33.5 Z M 202.5,64.5 C 278.681,62.9874 335.514,94.9874 373,160.5C 376.275,167.384 379.275,174.384 382,181.5C 390.994,214.147 400.994,246.481 412,278.5C 427.333,314.5 442.667,350.5 458,386.5C 465.253,412.505 455.753,428.338 429.5,434C 421.5,434.667 413.5,434.667 405.5,434C 368.442,429.409 331.442,424.409 294.5,419C 262.54,416.402 230.54,414.402 198.5,413C 127.027,405.021 77.5273,367.855 50,301.5C 27.9411,237.516 37.9411,179.182 80,126.5C 112.819,90.0073 153.652,69.3406 202.5,64.5 Z"/></g>
<g><path style="opacity:0.976" fill="#02c1c9" d="M 185.5,168.5 C 195.403,167.701 203.237,171.368 209,179.5C 222.523,198.12 225.856,218.454 219,240.5C 208.489,263.023 190.656,274.356 165.5,274.5C 148.637,275.114 136.804,267.78 130,252.5C 129.333,250.5 129.333,248.5 130,246.5C 140.177,246.674 148.177,242.674 154,234.5C 156.588,230.326 158.921,225.993 161,221.5C 165.133,208.634 168.8,195.634 172,182.5C 174.713,175.956 179.213,171.289 185.5,168.5 Z"/></g>
<g><path style="opacity:0.964" fill="#02c1c9" d="M 67.5,208.5 C 70.9705,207.875 73.8038,208.875 76,211.5C 80,218.833 84,226.167 88,233.5C 91.0834,238.588 94.9167,243.088 99.5,247C 104.041,248.615 108.541,250.115 113,251.5C 115.255,263.419 112.921,274.419 106,284.5C 97.2316,292.893 87.7316,293.726 77.5,287C 65.225,275.606 59.0583,261.439 59,244.5C 57.848,234.923 58.848,225.59 62,216.5C 63.129,213.206 64.9624,210.54 67.5,208.5 Z"/></g>
</svg>
